#!OML:ASF E:\Steps\Project 1\Capture day 1\Session 2\Subject.ASF
:FULLY-SPECIFIED
:DEGREES
254
root -1.11886 17.9744 20.9703 -155.217 1.13597 178.073
lowerback -27.708 -3.02595 -6.6384
upperback -0.26973 -1.29773 -0.326126
thorax 14.6167 -0.824218 2.83107
lowerneck -2.13934 -4.37161 0.735543
upperneck 18.2264 -5.2378 1.58291
head 5.87889 -1.9571 0.123903
rclavicle 2.98177e-015 1.70955e-014
rhumerus -37.7143 -14.541 -81.5677
rradius 33.8417
rwrist -3.76661
rhand -9.35386 -56.3473
rfingers 7.12502
rthumb 16.6058 -85.6568
lclavicle 2.98177e-015 1.70955e-014
lhumerus -27.9258 4.66054 81.2593
lradius 22.5198
lwrist -4.05436
lhand -22.5068 -12.8503
lfingers 7.12502
lthumb 3.91934 17.0934
rfemur -23.9947 7.13004 19.0327
rtibia 8.36094
rfoot -17.9335 -2.8313
rtoes -37.44
lfemur -23.2372 -6.58926 -23.3667
ltibia 7.89501
lfoot -7.36363 -1.85582
ltoes -37.2744
255
root -1.12155 17.9734 20.9705 -155.198 1.10127 178.133
lowerback -28.0854 -2.97107 -6.43933
upperback -0.0268972 -1.25381 -0.422059
thorax 15.0692 -0.811269 2.62493
lowerneck -2.51035 -4.35545 0.804119
upperneck 18.6003 -5.22573 1.61622
head 6.05977 -1.92829 0.11393
rclavicle 1.08338e-014 -2.62396e-014
rhumerus -37.3407 -14.703 -81.7948
rradius 33.8153
rwrist -3.80782
rhand -9.3678 -56.7743
rfingers 7.12502
rthumb 16.5924 -86.085
lclavicle 1.08338e-014 -2.62396e-014
lhumerus -27.5111 4.56309 81.1765
lradius 22.4818
lwrist -4.04317
lhand -22.3741 -12.746
lfingers 7.12502
lthumb 4.04752 17.1953
rfemur -23.981 7.18381 19.0604
rtibia 8.28223
rfoot -17.8744 -2.83337
rtoes -37.0515
lfemur -23.2532 -6.77054 -23.2494
ltibia 7.88089
lfoot -7.30092 -1.68757
ltoes -36.5335
256
root -1.12129 17.9735 20.9739 -155.167 1.07454 178.19
lowerback -27.6862 -2.98406 -6.48169
upperback -0.299703 -1.29166 -0.340494
thorax 14.5681 -0.807359 2.73367
lowerneck -2.82593 -4.31506 0.763324
upperneck 19.5688 -5.07152 1.45285
head 6.41769 -1.81189 0.0689076
rclavicle -1.31198e-014 2.38542e-015
rhumerus -37.7752 -14.549 -81.639
rradius 33.9314
rwrist -3.90648
rhand -9.26386 -57.1953
rfingers 7.12502
rthumb 16.6924 -86.4976
lclavicle -1.31198e-014 2.38542e-015
lhumerus -27.9469 4.43681 81.2728
lradius 22.5576
lwrist -4.12276
lhand -22.4364 -12.8015
lfingers 7.12502
lthumb 3.98735 17.141
rfemur -24.0119 7.56032 19.0262
rtibia 8.26728
rfoot -17.8737 -3.09646
rtoes -36.3937
lfemur -23.3178 -6.79415 -23.1514
ltibia 7.88025
lfoot -7.32478 -1.65861
ltoes -37.24
257
root -1.12362 17.9736 20.9725 -155.224 1.14502 178.235
lowerback -28.0975 -2.89589 -6.32247
upperback 0.0204325 -1.19254 -0.453528
thorax 15.1222 -0.779722 2.55018
lowerneck -3.00454 -4.38868 0.977794
upperneck 19.4662 -5.22344 1.46186
head 6.41126 -1.8806 0.0227996
rclavicle -4.87022e-015 1.90833e-014
rhumerus -37.2957 -14.8255 -81.8399
rradius 33.8307
rwrist -3.77761
rhand -9.16289 -57.2612
rfingers 7.12502
rthumb 16.7896 -86.5553
lclavicle -4.87022e-015 1.90833e-014
lhumerus -27.5013 4.20279 81.2339
lradius 22.5695
lwrist -3.93792
lhand -22.4758 -12.9374
lfingers 7.12502
lthumb 3.94927 17.0057
rfemur -23.9665 7.70623 19.0385
rtibia 8.28662
rfoot -17.8985 -3.18248
rtoes -36.7659
lfemur -23.2228 -6.77228 -23.1216
ltibia 7.82034
lfoot -7.30117 -1.5939
ltoes -37.8416
258
root -1.12522 17.9752 20.98 -155.156 1.10698 178.256
lowerback -27.759 -2.94488 -6.37355
upperback -0.205131 -1.27404 -0.360822
thorax 14.7087 -0.801624 2.65674
lowerneck -2.63215 -4.64186 1.01344
upperneck 19.2404 -5.54388 1.33497
head 6.27098 -2.05138 -0.0334866
rclavicle 1.38155e-014 2.74323e-014
rhumerus -37.6114 -14.6697 -81.6758
rradius 33.9105
rwrist -3.81385
rhand -9.21394 -57.0916
rfingers 7.12502
rthumb 16.7405 -86.3899
lclavicle 1.38155e-014 2.74323e-014
lhumerus -27.798 4.29791 81.3038
lradius 22.6211
lwrist -3.77551
lhand -22.3883 -12.8865
lfingers 7.12502
lthumb 4.03383 17.0551
rfemur -24.1144 7.59862 19.0886
rtibia 8.34815
rfoot -17.867 -3.16865
rtoes -37.2307
lfemur -23.3699 -6.70087 -23.0951
ltibia 7.90512
lfoot -7.24872 -1.70963
ltoes -37.7128
259
root -1.12853 17.9738 20.9874 -154.963 1.09493 178.286
lowerback -27.8137 -2.98047 -6.33453
upperback -0.301459 -1.32511 -0.320748
thorax 14.6281 -0.813163 2.66008
lowerneck -2.35799 -4.81076 0.990893
upperneck 18.9706 -5.78108 1.3589
head 6.14019 -2.17922 -0.0284533
rclavicle 1.26228e-014 2.14687e-014
rhumerus -37.6941 -14.5576 -81.6393
rradius 33.9491
rwrist -3.85111
rhand -9.30973 -56.7276
rfingers 7.12502
rthumb 16.6483 -86.0336
lclavicle 1.26228e-014 2.14687e-014
lhumerus -27.8534 4.42649 81.3171
lradius 22.624
lwrist -3.66354
lhand -22.3073 -12.7588
lfingers 7.12502
lthumb 4.11201 17.1812
rfemur -24.4385 7.62039 19.0507
rtibia 8.44991
rfoot -17.8487 -3.14753
rtoes -36.7048
lfemur -23.6823 -6.75942 -23.0155
ltibia 8.01633
lfoot -7.26864 -1.66706
ltoes -37.4344
260
root -1.13226 17.9747 20.9846 -155.094 1.17643 178.247
lowerback -27.7483 -2.97787 -6.38816
upperback -0.255981 -1.31756 -0.315705
thorax 14.6501 -0.819087 2.69789
lowerneck -2.259 -4.75601 0.851441
upperneck 18.9148 -5.7115 1.49324
head 6.11355 -2.14642 0.0435648
rclavicle -5.26779e-015 1.27222e-014
rhumerus -37.6714 -14.5345 -81.5727
rradius 33.8534
rwrist -3.8084
rhand -9.32288 -56.2187
rfingers 7.12502
rthumb 16.6356 -85.5257
lclavicle -5.26779e-015 1.27222e-014
lhumerus -27.8657 4.45041 81.3535
lradius 22.5995
lwrist -3.64556
lhand -22.4145 -12.7705
lfingers 7.12502
lthumb 4.00854 17.1716
rfemur -24.281 7.6472 18.9793
rtibia 8.42876
rfoot -17.8329 -3.02544
rtoes -36.1555
lfemur -23.4973 -6.6593 -23.1412
ltibia 7.95895
lfoot -7.26637 -1.72627
ltoes -37.1608
261
root -1.13291 17.9723 20.9892 -155.009 1.12403 178.2
lowerback -27.778 -3.03898 -6.45031
upperback -0.274382 -1.3743 -0.298509
thorax 14.6498 -0.846902 2.72819
lowerneck -2.35286 -4.76803 0.72094
upperneck 19.1931 -5.71202 1.56708
head 6.22427 -2.1344 0.0846004
rclavicle 5.76476e-015 3.1408e-014
rhumerus -37.6027 -14.5516 -81.5267
rradius 33.7203
rwrist -3.71857
rhand -9.23123 -56.0411
rfingers 7.12502
rthumb 16.7238 -85.3407
lclavicle 5.76476e-015 3.1408e-014
lhumerus -27.8953 4.33272 81.3923
lradius 22.6473
lwrist -3.55826
lhand -22.5158 -12.8163
lfingers 7.12502
lthumb 3.91064 17.1275
rfemur -24.3934 7.61946 18.9054
rtibia 8.47994
rfoot -17.8517 -3.02535
rtoes -35.9717
lfemur -23.6718 -6.53733 -23.2266
ltibia 8.06323
lfoot -7.25123 -1.93734
ltoes -37.3518
262
root -1.13475 17.9737 20.9886 -155.068 1.1188 178.232
lowerback -27.7493 -3.02181 -6.40114
upperback -0.227547 -1.37349 -0.313763
thorax 14.6891 -0.84783 2.68491
lowerneck -2.54826 -4.91396 0.706417
upperneck 19.6094 -5.88147 1.50007
head 6.39004 -2.20086 0.0485526
rclavicle 3.37934e-015 5.1684e-015
rhumerus -37.5482 -14.5965 -81.5559
rradius 33.6679
rwrist -3.64277
rhand -9.19997 -56.6592
rfingers 7.12502
rthumb 16.7539 -85.9563
lclavicle 3.37934e-015 5.1684e-015
lhumerus -27.9109 4.18789 81.3743
lradius 22.7367
lwrist -3.44217
lhand -22.505 -12.951
lfingers 7.12502
lthumb 3.92115 16.9926
rfemur -24.3041 7.59428 18.9397
rtibia 8.4689
rfoot -17.9224 -3.02412
rtoes -35.9275
lfemur -23.5966 -6.60726 -23.1712
ltibia 8.03271
lfoot -7.23148 -1.85915
ltoes -37.1888
263
root -1.13794 17.9736 20.9896 -155.04 1.13347 178.263
lowerback -27.814 -3.0039 -6.33665
upperback -0.193127 -1.3643 -0.331625
thorax 14.7575 -0.842013 2.63222
lowerneck -2.73554 -5.04766 0.755327
upperneck 19.9586 -6.03576 1.37933
head 6.52959 -2.26368 -0.0141128
rclavicle -3.3197e-014 -3.18055e-015
rhumerus -37.5305 -14.6096 -81.5977
rradius 33.7265
rwrist -3.65643
rhand -9.18386 -57.6068
rfingers 7.12502
rthumb 16.7694 -86.9026
lclavicle -3.3197e-014 -3.18055e-015
lhumerus -27.9059 4.1467 81.3342
lradius 22.7628
lwrist -3.44175
lhand -22.5071 -13.0793
lfingers 7.12502
lthumb 3.91909 16.8644
rfemur -24.3411 7.37751 19.0204
rtibia 8.47526
rfoot -17.9468 -2.88082
rtoes -36.3857
lfemur -23.6172 -6.67031 -23.1183
ltibia 8.01814
lfoot -7.22122 -1.7902
ltoes -36.4533
264
root -1.14242 17.9727 20.9897 -155 1.21206 178.264
lowerback -27.8509 -2.99601 -6.33342
upperback -0.196271 -1.35339 -0.319223
thorax 14.7707 -0.837318 2.64754
lowerneck -2.97214 -5.07962 0.916138
upperneck 20.3893 -5.99709 0.930096
head 6.68865 -2.24753 -0.189445
rclavicle 1.78906e-015 -1.55052e-014
rhumerus -37.5727 -14.5416 -81.5722
rradius 33.8279
rwrist -3.7266
rhand -9.2368 -57.9561
rfingers 7.12502
rthumb 16.7185 -87.2562
lclavicle 1.78906e-015 -1.55052e-014
lhumerus -27.9276 4.34058 81.3087
lradius 22.6835
lwrist -3.64358
lhand -22.4833 -13.1844
lfingers 7.12502
lthumb 3.94209 16.7589
rfemur -24.416 7.10844 19.0759
rtibia 8.5031
rfoot -17.9405 -2.60769
rtoes -36.9933
lfemur -23.6246 -6.59596 -23.1743
ltibia 7.99232
lfoot -7.32218 -1.74719
ltoes -37.5043
